<!--version="1.0" standalone="no"--><!DOCTYPE html PUBLIC "-//W3C//DTD SVG 1.0//EN" "http://www.w3.org/TR/2001/REC-SVG-20010904/DTD/svg10.dtd"><svg xmlns="http://www.w3.org/2000/svg" xmlns:xlink="http://www.w3.org/1999/xlink" id="body_-718826042_30480" width="4561.3281" height="222.23918" preserveAspectRatio="xMidYMid meet" zoomAndPan="magnify" version="1.0" contentScriptType="text/ecmascript" contentStyleType="text/css">

<g transform="matrix(95.500795 0 0 -95.500795 -8564.4364 24335.196)">
    <g>
            <path d="M91.368557 252.76624L94.584037 254.30154" stroke="#000000" stroke-width="0.0074083148" stroke-linejoin="round" stroke-dasharray="5000,150000" fill="none"/>
            <path d="M94.252974 254.30154L90.547291 252.76624" stroke="#000000" stroke-width="0.0074083148" stroke-linejoin="round" stroke-dasharray="5000,150000" fill="none"/>
            <path d="M89.805508 252.77661L93.97302 254.30154" stroke="#000000" stroke-width="0.0074083148" stroke-linejoin="round" stroke-dasharray="5000,150000" fill="none"/>
                <path d="M92.581239 254.71995L92.581239 254.64381L92.581239 254.64381L92.670984 254.73359L92.670984 254.73359L92.760694 254.64381L92.760694 254.64381L92.760694 254.71995L92.760694 254.71995L92.670984 254.80973L92.670984 254.80973L92.581239 254.71995" stroke="#000000" stroke-width="0" stroke-opacity="1" fill="#000000" fill-rule="evenodd" fill-opacity="1"/>
                <path d="M92.581239 254.71995L92.581239 254.64381L92.670984 254.73359L92.760694 254.64381L92.760694 254.71995L92.670984 254.80973L92.581239 254.71995" stroke="#000000" stroke-width="0.0074083148" stroke-linecap="round" stroke-linejoin="round" fill="none"/>
                <path d="M91.721701 253.0384L91.790328 253.0712L91.790328 253.0712L91.748094 252.95158L91.748094 252.95158L91.867773 252.90928L91.867773 252.90928L91.799147 252.87648L91.799147 252.87648L91.679396 252.91872L91.679396 252.91872L91.721701 253.0384" stroke="#000000" stroke-width="0" stroke-opacity="1" fill="#000000" fill-rule="evenodd" fill-opacity="1"/>
                <path d="M91.721701 253.0384L91.790328 253.0712L91.748094 252.95158L91.867773 252.90928L91.799147 252.87648L91.679396 252.91872L91.721701 253.0384" stroke="#000000" stroke-width="0.0074083148" stroke-linecap="round" stroke-linejoin="round" fill="none"/>
            <path d="M93.97302 254.30154L96.783846 254.30154" stroke="#000000" stroke-width="0.0074083148" stroke-linejoin="round" stroke-dasharray="5000,150000" fill="none"/>
            <path d="M93.843401 254.24239L96.811041 254.24239" stroke="#000000" stroke-width="0.0074083148" stroke-linejoin="round" stroke-dasharray="5000,150000" fill="none"/>
            <path d="M93.657986 254.17452L96.842244 254.17452" stroke="#000000" stroke-width="0.0074083148" stroke-linejoin="round" stroke-dasharray="5000,150000" fill="none"/>
            <path d="M93.443254 254.09594L96.878373 254.09594" stroke="#000000" stroke-width="0.0074083148" stroke-linejoin="round" stroke-dasharray="5000,150000" fill="none"/>
            <path d="M93.191607 254.00389L96.920695 254.00389" stroke="#000000" stroke-width="0.0074083148" stroke-linejoin="round" stroke-dasharray="5000,150000" fill="none"/>
            <path d="M92.892693 253.89451L96.970984 253.89451" stroke="#000000" stroke-width="0.0074083148" stroke-linejoin="round" stroke-dasharray="5000,150000" fill="none"/>
            <path d="M92.531785 253.76246L97.031695 253.76246" stroke="#000000" stroke-width="0.0074083148" stroke-linejoin="round" stroke-dasharray="5000,150000" fill="none"/>
            <path d="M92.087367 253.59981L97.106471 253.59981" stroke="#000000" stroke-width="0.0074083148" stroke-linejoin="round" stroke-dasharray="5000,150000" fill="none"/>
            <path d="M91.526713 253.39466L97.200792 253.39466" stroke="#000000" stroke-width="0.0074083148" stroke-linejoin="round" stroke-dasharray="5000,150000" fill="none"/>
            <path d="M90.797248 253.12777L97.323497 253.12777" stroke="#000000" stroke-width="0.0074083148" stroke-linejoin="round" stroke-dasharray="5000,150000" fill="none"/>
            <path d="M97.489711 252.76624L89.809264 252.76624" stroke="#000000" stroke-width="0.0074083148" stroke-linejoin="round" stroke-dasharray="5000,150000" fill="none"/>
            <g>
                <path d="M93.094173 254.16266L93.160857 254.15382L93.221329 254.12732L93.275589 254.08315L93.318217 254.02576L93.343794 253.95961L93.35232 253.88468L93.343728 253.80762L93.317953 253.73981L93.274994 253.68126L93.219831 253.63632L93.157443 253.60935L93.087828 253.60037L93.017751 253.60913L92.95556 253.63544L92.901256 253.67928L92.859289 253.73704L92.834109 253.80511L92.825715 253.88349L92.835409 253.96364L92.864488 254.0333L92.912954 254.09247L92.966751 254.13146L93.027157 254.15486L93.094173 254.16266zM93.086638 254.13371L93.041697 254.12776L93.003101 254.10992L92.970849 254.08018L92.940668 254.02889L92.922559 253.96386L92.916523 253.88508L92.922779 253.80405L92.941549 253.73651L92.972831 253.68245L93.004731 253.65249L93.042799 253.63451L93.087035 253.62852L93.134597 253.63508L93.1763 253.65478L93.212143 253.6876L93.23957 253.73457L93.256027 253.7967L93.261512 253.87398L93.255476 253.95818L93.237367 254.02678L93.207186 254.07978L93.174406 254.10974L93.134223 254.12772L93.086638 254.13371zM93.515297 253.98659L93.515297 253.90491L93.545963 253.95029L93.577157 253.97752L93.608881 253.98659L93.622583 253.98512L93.634612 253.98069L93.644966 253.97331L93.652896 253.96399L93.657655 253.95375L93.659241 253.94258L93.658095 253.9328L93.654659 253.92407L93.648931 253.91641L93.641617 253.91046L93.633422 253.90689L93.624346 253.9057L93.614718 253.90722L93.604342 253.91178L93.593217 253.91938L93.582709 253.92698L93.574183 253.93154L93.56764 253.93306L93.56275 253.93218L93.557595 253.92954L93.552175 253.92513L93.540147 253.91196L93.527854 253.89411L93.515297 253.8716L93.515297 253.69752L93.516134 253.67906L93.518646 253.66386L93.522832 253.65192L93.527149 253.64517L93.53323 253.63923L93.541072 253.63407L93.551074 253.63011L93.563631 253.62773L93.578744 253.62693L93.578744 253.61266L93.392767 253.61266L93.392767 253.62693L93.409686 253.6279L93.423432 253.63081L93.434007 253.63566L93.439955 253.64072L93.444581 253.64747L93.447886 253.65588L93.448987 253.66315L93.449648 253.67597L93.449868 253.69434L93.449868 253.83512L93.449582 253.87171L93.448723 253.89689L93.447291 253.91066L93.445088 253.91799L93.441915 253.92388L93.437774 253.9283L93.432773 253.93139L93.427023 253.93324L93.420524 253.93385L93.411977 253.93319L93.402724 253.93121L93.392767 253.92791L93.388801 253.94218L93.498643 253.98659L93.515297 253.98659zM93.771858 254.17654L93.78241 254.17524L93.791861 254.17134L93.800211 254.16484L93.80671 254.15649L93.810609 254.14704L93.811909 254.13649L93.810609 254.12591L93.80671 254.11639L93.800211 254.10794L93.791861 254.10133L93.782411 254.09736L93.771858 254.09604L93.761284 254.09736L93.751767 254.10133L93.743307 254.10794L93.736698 254.11639L93.732733 254.12591L93.731411 254.13649L93.732711 254.14704L93.73661 254.15649L93.743109 254.16484L93.751502 254.17134L93.761086 254.17524L93.771858 254.17654zM93.804771 253.69474L93.805322 253.67454L93.806974 253.65941L93.809728 253.64934L93.813561 253.64244L93.818452 253.63682L93.8244 253.63248L93.832661 253.6294L93.844491 253.62755L93.85989 253.62693L93.85989 253.61266L93.68343 253.61266L93.68343 253.62693L93.699203 253.62751L93.7111 253.62922L93.719118 253.63209L93.72478 253.63627L93.729605 253.64196L93.733592 253.64914L93.736566 253.65949L93.738351 253.67469L93.738945 253.69474L93.738945 253.83472L93.738549 253.86948L93.737359 253.89499L93.735377 253.91125L93.733174 253.91885L93.730266 253.92473L93.726653 253.9289L93.722203 253.93165L93.716783 253.9333L93.710395 253.93385L93.702464 253.93319L93.693476 253.93121L93.68343 253.92791L93.677878 253.94218L93.787323 253.98659L93.804771 253.98659zM94.002248 253.7451L93.98176 253.75737L93.964709 253.77251L93.951094 253.79051L93.94118 253.81062L93.935232 253.8321L93.93325 253.85494L93.937766 253.88922L93.951314 253.92015L93.973895 253.94773L94.003525 253.96932L94.038223 253.98228L94.077987 253.98659L94.111075 253.98377L94.14108 253.97531L94.168001 253.96122L94.24493 253.96122L94.254711 253.96111L94.26132 253.96078L94.264757 253.96022L94.266431 253.95941L94.267753 253.95829L94.268722 253.95685L94.270044 253.95386L94.270837 253.94963L94.271101 253.94416L94.270881 253.938L94.27022 253.93324L94.269119 253.92989L94.268127 253.92866L94.266739 253.9276L94.264955 253.92672L94.261408 253.92606L94.254733 253.92566L94.24493 253.92553L94.197741 253.92553L94.210078 253.90473L94.21748 253.88041L94.219948 253.85256L94.21563 253.82036L94.202676 253.79141L94.181087 253.76572L94.152227 253.74567L94.117464 253.73365L94.076797 253.72964L94.058688 253.73052L94.040315 253.73316L94.021678 253.73757L94.011302 253.72794L94.003437 253.71915L93.998084 253.7112L93.994669 253.70404L93.99262 253.69763L93.991938 253.69197L93.992664 253.68752L93.994846 253.68315L93.99848 253.67888L94.00423 253.67505L94.012756 253.67201L94.024057 253.66976L94.03516 253.66875L94.053666 253.66782L94.079573 253.66698L94.127642 253.66549L94.162934 253.66364L94.185449 253.66143L94.208382 253.6561L94.228011 253.64698L94.244335 253.63407L94.256561 253.61812L94.263897 253.59988L94.266343 253.57935L94.261672 253.55009L94.247661 253.52207L94.22431 253.49528L94.178884 253.46312L94.125087 253.44382L94.062918 253.43739L94.01454 253.44122L93.97145 253.45272L93.933646 253.47189L93.917124 253.48528L93.90721 253.49903L93.903906 253.51313L93.90439 253.51947L93.905844 253.52582L93.908268 253.53216L93.914348 253.54322L93.923601 253.55683L93.936026 253.573L93.941753 253.57935L93.955236 253.59362L93.976473 253.61583L93.96407 253.62374L93.954354 253.63107L93.947327 253.63784L93.94259 253.6446L93.939749 253.65194L93.938801 253.65985L93.940057 253.66963L93.943824 253.68047L93.950103 253.69236L93.960919 253.70651L93.978301 253.72409L94.002248 253.7451zM94.071245 253.96756L94.05274 253.96496L94.03635 253.95716L94.022075 253.94416L94.011059 253.92579L94.004451 253.90187L94.002248 253.87239L94.005244 253.83375L94.014232 253.80137L94.029212 253.77524L94.044193 253.7607L94.06164 253.75198L94.081555 253.74907L94.100457 253.75158L94.11698 253.75911L94.131123 253.77167L94.141917 253.7896L94.148394 253.81326L94.150553 253.84265L94.147513 253.88164L94.138393 253.91456L94.123192 253.94139L94.108432 253.95593L94.091116 253.96465L94.071245 253.96756zM93.998282 253.61266L93.986871 253.59948L93.977486 253.58693L93.970128 253.57499L93.964841 253.56366L93.961668 253.55296L93.960611 253.54287L93.963166 253.53071L93.970833 253.5196L93.98361 253.50956L94.013967 253.4959L94.052167 253.4877L94.09821 253.48497L94.141631 253.48777L94.176725 253.49616L94.203491 253.51015L94.222327 253.52731L94.233628 253.54522L94.237395 253.56388L94.235148 253.57631L94.228407 253.58609L94.217172 253.59323L94.198931 253.59825L94.171702 253.60169L94.135485 253.60354L94.080586 253.60561L94.034852 253.60865L93.998282 253.61266zM94.403545 254.17654L94.414098 254.17524L94.423549 254.17134L94.431898 254.16484L94.438397 254.15649L94.442296 254.14704L94.443596 254.13649L94.442296 254.12591L94.438397 254.11639L94.431898 254.10794L94.423548 254.10133L94.414098 254.09736L94.403545 254.09604L94.392971 254.09736L94.383454 254.10133L94.374995 254.10794L94.368385 254.11639L94.36442 254.12591L94.363098 254.13649L94.364398 254.14704L94.368297 254.15649L94.374796 254.16484L94.38319 254.17134L94.392773 254.17524L94.403545 254.17654zM94.436458 253.69474L94.437009 253.67454L94.438661 253.65941L94.441415 253.64934L94.445248 253.64244L94.450139 253.63682L94.456087 253.63248L94.464348 253.6294L94.476178 253.62755L94.491577 253.62693L94.491577 253.61266L94.315117 253.61266L94.315117 253.62693L94.33089 253.62751L94.342787 253.62922L94.350806 253.63209L94.356467 253.63627L94.361292 253.64196L94.365279 253.64914L94.368253 253.65949L94.370038 253.67469L94.370633 253.69474L94.370633 253.83472L94.370236 253.86948L94.369046 253.89499L94.367064 253.91125L94.364861 253.91885L94.361953 253.92473L94.35834 253.9289L94.35389 253.93165L94.34847 253.9333L94.342082 253.93385L94.334151 253.93319L94.325163 253.93121L94.315117 253.92791L94.309566 253.94218L94.41901 253.98659L94.436458 253.98659zM94.642659 253.90967L94.684559 253.9524L94.725139 253.97805L94.764396 253.98659L94.783298 253.98494L94.800349 253.97999L94.81555 253.97172L94.828856 253.95967L94.840223 253.94335L94.849652 253.92275L94.854499 253.90407L94.857407 253.87975L94.858376 253.84979L94.858376 253.69474L94.858993 253.67421L94.860843 253.65861L94.863928 253.64795L94.86743 253.64183L94.872123 253.63667L94.878005 253.63248L94.88631 253.6294L94.898272 253.62755L94.913891 253.62693L94.913891 253.61266L94.734259 253.61266L94.734259 253.62693L94.741793 253.62693L94.757016 253.62779L94.768846 253.63037L94.777284 253.63467L94.783342 253.64064L94.788034 253.64824L94.791361 253.65747L94.792242 253.66425L94.792771 253.67668L94.792947 253.69474L94.792947 253.84344L94.791515 253.87347L94.787219 253.89746L94.780059 253.91542L94.769507 253.92786L94.755033 253.93533L94.736638 253.93782L94.705224 253.93209L94.673897 253.91491L94.642659 253.88627L94.642659 253.69474L94.643143 253.67328L94.644597 253.65808L94.647021 253.64914L94.651184 253.64216L94.656273 253.63654L94.662287 253.63229L94.670989 253.62931L94.684141 253.62753L94.701743 253.62693L94.701743 253.61266L94.522111 253.61266L94.522111 253.62693L94.530041 253.62693L94.546542 253.6285L94.559033 253.63319L94.567514 253.64101L94.572912 253.65324L94.57615 253.67115L94.57723 253.69474L94.57723 253.82956L94.576899 253.8675L94.575908 253.89407L94.574256 253.90927L94.57192 253.91777L94.56888 253.92425L94.565135 253.9287L94.560575 253.93156L94.55509 253.93328L94.548679 253.93385L94.540792 253.93319L94.531936 253.93121L94.522111 253.92791L94.516163 253.94218L94.625607 253.98659L94.642659 253.98659L94.642659 253.90967zM95.003906 253.83908L95.008091 253.78903L95.021177 253.74673L95.043163 253.71219L95.071141 253.68663L95.102204 253.6713L95.13635 253.66619L95.159107 253.66837L95.179793 253.67491L95.198408 253.68582L95.215041 253.70201L95.229779 253.72442L95.242623 253.75303L95.254915 253.7451L95.245839 253.70996L95.229713 253.67699L95.206538 253.64617L95.17759 253.62138L95.144149 253.60651L95.106213 253.60155L95.064686 253.60722L95.027346 253.6242L94.994191 253.65251L94.968305 253.69038L94.952774 253.73605L94.947597 253.78951L94.952906 253.84708L94.968834 253.89552L94.99538 253.93485L95.029945 253.96382L95.06993 253.9812L95.115333 253.98699L95.153621 253.98252L95.187063 253.9691L95.215658 253.94674L95.237467 253.91689L95.250553 253.881L95.254915 253.83908L95.003906 253.83908zM95.172039 253.86208L95.170232 253.88305L95.167456 253.89944L95.163711 253.91125L95.156023 253.925L95.146175 253.93663L95.134169 253.94615L95.120885 253.9532L95.107204 253.95743L95.093127 253.95884L95.071956 253.95599L95.052328 253.94747L95.034241 253.93326L95.019327 253.91398L95.009215 253.89026L95.003906 253.86208zM95.36436 253.83908L95.368546 253.78903L95.381632 253.74673L95.403618 253.71219L95.431595 253.68663L95.462658 253.6713L95.496804 253.66619L95.519561 253.66837L95.540247 253.67491L95.558863 253.68582L95.575495 253.70201L95.590233 253.72442L95.603077 253.75303L95.61537 253.7451L95.606293 253.70996L95.590167 253.67699L95.566992 253.64617L95.538044 253.62138L95.504603 253.60651L95.466667 253.60155L95.425141 253.60722L95.3878 253.6242L95.354645 253.65251L95.32876 253.69038L95.313229 253.73605L95.308052 253.78951L95.313361 253.84708L95.329288 253.89552L95.355835 253.93485L95.390399 253.96382L95.430384 253.9812L95.475788 253.98699L95.514076 253.98252L95.547517 253.9691L95.576112 253.94674L95.597922 253.91689L95.611008 253.881L95.61537 253.83908L95.36436 253.83908zM95.532493 253.86208L95.530686 253.88305L95.527911 253.89944L95.524166 253.91125L95.516477 253.925L95.50663 253.93663L95.494623 253.94615L95.481339 253.9532L95.467659 253.95743L95.453582 253.95884L95.43241 253.95599L95.412782 253.94747L95.394695 253.93326L95.379781 253.91398L95.369669 253.89026L95.36436 253.86208zM95.77002 253.98659L95.77002 253.90491L95.800685 253.95029L95.83188 253.97752L95.863603 253.98659L95.877306 253.98512L95.889334 253.98069L95.899688 253.97331L95.907619 253.96399L95.912378 253.95375L95.913964 253.94258L95.912818 253.9328L95.909381 253.92407L95.903654 253.91641L95.896339 253.91046L95.888145 253.90689L95.879068 253.9057L95.869441 253.90722L95.859065 253.91178L95.84794 253.91938L95.837431 253.92698L95.828906 253.93154L95.822363 253.93306L95.817472 253.93218L95.812317 253.92954L95.806898 253.92513L95.794869 253.91196L95.782577 253.89411L95.77002 253.8716L95.77002 253.69752L95.770857 253.67906L95.773368 253.66386L95.777554 253.65192L95.781872 253.64517L95.787952 253.63923L95.795795 253.63407L95.805796 253.63011L95.818354 253.62773L95.833466 253.62693L95.833466 253.61266L95.647489 253.61266L95.647489 253.62693L95.664408 253.6279L95.678155 253.63081L95.688729 253.63566L95.694677 253.64072L95.699304 253.64747L95.702608 253.65588L95.703709 253.66315L95.704371 253.67597L95.704591 253.69434L95.704591 253.83512L95.704304 253.87171L95.703445 253.89689L95.702013 253.91066L95.69981 253.91799L95.696638 253.92388L95.692496 253.9283L95.687495 253.93139L95.681746 253.93324L95.675247 253.93385L95.666699 253.93319L95.657447 253.93121L95.647489 253.92791L95.643524 253.94218L95.753365 253.98659L95.77002 253.98659zM96.026581 254.17654L96.037133 254.17524L96.046584 254.17134L96.054933 254.16484L96.061432 254.15649L96.065332 254.14704L96.066631 254.13649L96.065331 254.12591L96.061432 254.11639L96.054933 254.10794L96.046584 254.10133L96.037133 254.09736L96.026581 254.09604L96.016006 254.09736L96.00649 254.10133L95.99803 254.10794L95.991421 254.11639L95.987456 254.12591L95.986134 254.13649L95.987433 254.14704L95.991333 254.15649L95.997832 254.16484L96.006225 254.17134L96.015808 254.17524L96.026581 254.17654zM96.059494 253.69474L96.060044 253.67454L96.061697 253.65941L96.06445 253.64934L96.068283 253.64244L96.073174 253.63682L96.079122 253.63248L96.087383 253.6294L96.099214 253.62755L96.114613 253.62693L96.114613 253.61266L95.938153 253.61266L95.938153 253.62693L95.953926 253.62751L95.965822 253.62922L95.973841 253.63209L95.979503 253.63627L95.984327 253.64196L95.988315 253.64914L95.991289 253.65949L95.993073 253.67469L95.993668 253.69474L95.993668 253.83472L95.993271 253.86948L95.992082 253.89499L95.990099 253.91125L95.987896 253.91885L95.984988 253.92473L95.981375 253.9289L95.976925 253.93165L95.971506 253.9333L95.965117 253.93385L95.957186 253.93319L95.948198 253.93121L95.938153 253.92791L95.932601 253.94218L96.042046 253.98659L96.059494 253.98659zM96.265694 253.90967L96.307595 253.9524L96.348174 253.97805L96.387432 253.98659L96.406333 253.98494L96.423385 253.97999L96.438585 253.97172L96.451891 253.95967L96.463259 253.94335L96.472688 253.92275L96.477534 253.90407L96.480442 253.87975L96.481411 253.84979L96.481411 253.69474L96.482028 253.67421L96.483879 253.65861L96.486963 253.64795L96.490465 253.64183L96.495158 253.63667L96.50104 253.63248L96.509345 253.6294L96.521308 253.62755L96.536927 253.62693L96.536927 253.61266L96.357295 253.61266L96.357295 253.62693L96.364829 253.62693L96.380051 253.62779L96.391882 253.63037L96.400319 253.63467L96.406377 253.64064L96.41107 253.64824L96.414396 253.65747L96.415277 253.66425L96.415806 253.67668L96.415982 253.69474L96.415982 253.84344L96.41455 253.87347L96.410255 253.89746L96.403095 253.91542L96.392542 253.92786L96.378069 253.93533L96.359674 253.93782L96.328259 253.93209L96.296933 253.91491L96.265694 253.88627L96.265694 253.69474L96.266178 253.67328L96.267633 253.65808L96.270056 253.64914L96.274219 253.64216L96.279309 253.63654L96.285323 253.63229L96.294024 253.62931L96.307177 253.62753L96.324778 253.62693L96.324778 253.61266L96.145146 253.61266L96.145146 253.62693L96.153077 253.62693L96.169577 253.6285L96.182068 253.63319L96.19055 253.64101L96.195947 253.65324L96.199186 253.67115L96.200265 253.69474L96.200265 253.82956L96.199934 253.8675L96.198943 253.89407L96.197291 253.90927L96.194956 253.91777L96.191916 253.92425L96.188171 253.9287L96.18361 253.93156L96.178125 253.93328L96.171714 253.93385L96.163827 253.93319L96.154971 253.93121L96.145146 253.92791L96.139198 253.94218L96.248643 253.98659L96.265694 253.98659L96.265694 253.90967zM96.663026 253.7451L96.642538 253.75737L96.625487 253.77251L96.611873 253.79051L96.601959 253.81062L96.596011 253.8321L96.594029 253.85494L96.598544 253.88922L96.612093 253.92015L96.634674 253.94773L96.664304 253.96932L96.699001 253.98228L96.738765 253.98659L96.771854 253.98377L96.801859 253.97531L96.82878 253.96122L96.905709 253.96122L96.915489 253.96111L96.922099 253.96078L96.925535 253.96022L96.927209 253.95941L96.928532 253.95829L96.929501 253.95685L96.930822 253.95386L96.931616 253.94963L96.93188 253.94416L96.931659 253.938L96.930999 253.93324L96.929897 253.92989L96.928906 253.92866L96.927518 253.9276L96.925734 253.92672L96.922187 253.92606L96.915512 253.92566L96.905709 253.92553L96.85852 253.92553L96.870857 253.90473L96.878259 253.88041L96.880727 253.85256L96.876408 253.82036L96.863455 253.79141L96.841866 253.76572L96.813006 253.74567L96.778243 253.73365L96.737576 253.72964L96.719467 253.73052L96.701094 253.73316L96.682457 253.73757L96.67208 253.72794L96.664216 253.71915L96.658863 253.7112L96.655448 253.70404L96.653399 253.69763L96.652716 253.69197L96.653443 253.68752L96.655624 253.68315L96.659259 253.67888L96.665009 253.67505L96.673535 253.67201L96.684836 253.66976L96.695939 253.66875L96.714444 253.66782L96.740352 253.66698L96.788421 253.66549L96.823713 253.66364L96.846228 253.66143L96.86916 253.6561L96.88879 253.64698L96.905114 253.63407L96.91734 253.61812L96.924676 253.59988L96.927122 253.57935L96.922451 253.55009L96.90844 253.52207L96.885088 253.49528L96.839662 253.46312L96.785866 253.44382L96.723697 253.43739L96.675319 253.44122L96.632229 253.45272L96.594425 253.47189L96.577902 253.48528L96.567989 253.49903L96.564685 253.51313L96.565169 253.51947L96.566623 253.52582L96.569047 253.53216L96.575127 253.54322L96.58438 253.55683L96.596804 253.573L96.602532 253.57935L96.616015 253.59362L96.637251 253.61583L96.624848 253.62374L96.615133 253.63107L96.608106 253.63784L96.603369 253.6446L96.600527 253.65194L96.59958 253.65985L96.600836 253.66963L96.604603 253.68047L96.610882 253.69236L96.621698 253.70651L96.63908 253.72409L96.663026 253.7451zM96.732024 253.96756L96.713519 253.96496L96.697129 253.95716L96.682853 253.94416L96.671838 253.92579L96.665229 253.90187L96.663026 253.87239L96.666022 253.83375L96.675011 253.80137L96.689991 253.77524L96.704971 253.7607L96.722419 253.75198L96.742334 253.74907L96.761236 253.75158L96.777759 253.75911L96.791902 253.77167L96.802696 253.7896L96.809173 253.81326L96.811332 253.84265L96.808292 253.88164L96.799172 253.91456L96.783971 253.94139L96.769211 253.95593L96.751895 253.96465L96.732024 253.96756zM96.659061 253.61266L96.647649 253.59948L96.638265 253.58693L96.630907 253.57499L96.625619 253.56366L96.622447 253.55296L96.62139 253.54287L96.623945 253.53071L96.631612 253.5196L96.644389 253.50956L96.674746 253.4959L96.712946 253.4877L96.758989 253.48497L96.80241 253.48777L96.837504 253.49616L96.86427 253.51015L96.883105 253.52731L96.894407 253.54522L96.898174 253.56388L96.895927 253.57631L96.889186 253.58609L96.877951 253.59323L96.85971 253.59825L96.832481 253.60169L96.796264 253.60354L96.741365 253.60561L96.695631 253.60865L96.659061 253.61266z" stroke="#000000" stroke-width="0.0074083148" stroke-linejoin="round" fill="#000000" fill-rule="evenodd" fill-opacity="1"/>
            </g>
            <path d="M92.670984 253.39304L92.670984 254.73359" stroke="#000000" stroke-width="0.0074083148" stroke-linecap="round" stroke-linejoin="round" fill="none"/>
            <path d="M92.671001 253.39297L91.748094 252.95158" stroke="#000000" stroke-width="0.0074083148" stroke-linecap="round" stroke-linejoin="round" fill="none"/>
            <path d="M92.670984 253.39304L97.057487 253.39466" stroke="#000000" stroke-width="0.0074083148" stroke-linecap="round" stroke-linejoin="round" fill="none"/>
                <path d="M96.969327 253.30333L97.059106 253.39304L96.969327 253.48282L97.045463 253.48282L97.135242 253.39304L97.045463 253.30333L96.969327 253.30333" stroke="#000000" stroke-width="0.00023270924" stroke-linejoin="round" fill="none"/>
                <path d="M92.711791 253.39239L92.710705 253.38295L92.707609 253.37428L92.702736 253.36661L92.696367 253.36025L92.688725 253.3554L92.68006 253.3523L92.670623 253.35122L92.670625 253.35123L92.670625 253.35123L92.670612 253.35119L92.670619 253.35121L92.670621 253.35121L92.670623 253.35122L92.670625 253.35123L92.670625 253.35123L92.670612 253.35119L92.670619 253.35121L92.670621 253.35121L92.670623 253.35122L92.661185 253.35231L92.652521 253.35541L92.644864 253.36023L92.638495 253.36662L92.633637 253.37427L92.63054 253.38294L92.629455 253.39239L92.629456 253.39239L92.629457 253.3924L92.629444 253.39236L92.629451 253.39238L92.629452 253.39238L92.629455 253.39239L92.629456 253.39239L92.629457 253.3924L92.629444 253.39236L92.629451 253.39238L92.629452 253.39238L92.629455 253.39239L92.630544 253.40183L92.633642 253.4105L92.638489 253.41811L92.644871 253.4245L92.652516 253.42937L92.661182 253.43246L92.670623 253.43356L92.670625 253.43356L92.670625 253.43356L92.670612 253.43353L92.670619 253.43355L92.670621 253.43355L92.670623 253.43356L92.670625 253.43356L92.670625 253.43356L92.670612 253.43353L92.670619 253.43355L92.670621 253.43355L92.670623 253.43356L92.680064 253.43247L92.68873 253.42938L92.69636 253.42448L92.702743 253.41813L92.707604 253.41049L92.710702 253.40182L92.711791 253.39239" stroke="#000000" stroke-width="0" stroke-opacity="1" fill="#000000" fill-rule="evenodd" fill-opacity="1"/>
            <path d="M92.132266 252.76624L94.857577 254.30154" stroke="#000000" stroke-width="0.0074083148" stroke-linejoin="round" stroke-dasharray="5000,150000" fill="none"/>
            <path d="M92.896081 252.76624L95.131224 254.30154" stroke="#000000" stroke-width="0.0074083148" stroke-linejoin="round" stroke-dasharray="5000,150000" fill="none"/>
            <path d="M93.660115 252.76624L95.40509 254.30154" stroke="#000000" stroke-width="0.0074083148" stroke-linejoin="round" stroke-dasharray="5000,150000" fill="none"/>
            <path d="M94.424489 252.76624L95.679296 254.30154" stroke="#000000" stroke-width="0.0074083148" stroke-linejoin="round" stroke-dasharray="5000,150000" fill="none"/>
            <path d="M95.189391 252.76624L95.95403 254.30154" stroke="#000000" stroke-width="0.0074083148" stroke-linejoin="round" stroke-dasharray="5000,150000" fill="none"/>
            <path d="M95.955108 252.76624L96.229578 254.30154" stroke="#000000" stroke-width="0.0074083148" stroke-linejoin="round" stroke-dasharray="5000,150000" fill="none"/>
            <path d="M96.721641 252.76779L96.506161 254.30154" stroke="#000000" stroke-width="0.0074083148" stroke-linejoin="round" stroke-dasharray="5000,150000" fill="none"/>
            <path d="M97.489711 252.76624L96.783846 254.30154" stroke="#000000" stroke-width="0.0074083148" stroke-linejoin="round" stroke-dasharray="5000,150000" fill="none"/>
            <path d="M92.711791 253.39239L92.711642 253.38884L92.711188 253.38535L92.710475 253.38201L92.709469 253.37872L92.708217 253.37558L92.70672 253.37257L92.704982 253.36968L92.703045 253.36702L92.700893 253.36449L92.698531 253.36212L92.695999 253.35997L92.693292 253.35801L92.690428 253.35628L92.687419 253.35479L92.684277 253.35354L92.681022 253.35256L92.67764 253.35181L92.674171 253.35136L92.670623 253.35122L92.670625 253.35123L92.670616 253.3512L92.67063 253.35124L92.67062 253.35121L92.670621 253.35122L92.670613 253.35119L92.670626 253.35123L92.670631 253.35124L92.670621 253.35122L92.670623 253.35122L92.670622 253.35122L92.670621 253.35122L92.670622 253.35122L92.67063 253.35124L92.670619 253.35121L92.670619 253.35121L92.670623 253.35122L92.670625 253.35123L92.670616 253.3512L92.67063 253.35124L92.67062 253.35121L92.670621 253.35122L92.670613 253.35119L92.670626 253.35123L92.670631 253.35124L92.670621 253.35122L92.670623 253.35122L92.670622 253.35122L92.670621 253.35122L92.670622 253.35122L92.67063 253.35124L92.670619 253.35121L92.670619 253.35121L92.670623 253.35122L92.667073 253.35138L92.663596 253.3518L92.660238 253.35256L92.656964 253.35353L92.653824 253.35479L92.650815 253.35628L92.647943 253.35799L92.645251 253.35997L92.642721 253.36214L92.640359 253.36447L92.638204 253.36701L92.636253 253.36971L92.634522 253.37257L92.633025 253.37558L92.631773 253.37873L92.630785 253.38201L92.630048 253.38536L92.629602 253.38882L92.629455 253.39239L92.629457 253.39239L92.629448 253.39237L92.629461 253.39241L92.629451 253.39238L92.629453 253.39238L92.629444 253.39236L92.629458 253.3924L92.629463 253.39241L92.629453 253.39238L92.629455 253.39239L92.629454 253.39239L92.629453 253.39238L92.629454 253.39239L92.629462 253.39241L92.629451 253.39238L92.629451 253.39238L92.629455 253.39239L92.629457 253.39239L92.629448 253.39237L92.629461 253.39241L92.629451 253.39238L92.629453 253.39238L92.629444 253.39236L92.629458 253.3924L92.629463 253.39241L92.629453 253.39238L92.629455 253.39239L92.629454 253.39239L92.629453 253.39238L92.629454 253.39239L92.629462 253.39241L92.629451 253.39238L92.629451 253.39238L92.629455 253.39239L92.629608 253.39595L92.630044 253.39939L92.630784 253.4028L92.63177 253.40604L92.633025 253.40918L92.634522 253.41219L92.636244 253.41503L92.638207 253.41777L92.640368 253.42032L92.642711 253.42265L92.645248 253.42481L92.647952 253.42676L92.650815 253.42848L92.653824 253.42998L92.656967 253.43124L92.660238 253.43225L92.663599 253.43295L92.667067 253.4334L92.670623 253.43356L92.670625 253.43356L92.670616 253.43354L92.67063 253.43358L92.67062 253.43355L92.670621 253.43355L92.670613 253.43353L92.670626 253.43357L92.670631 253.43358L92.670621 253.43355L92.670623 253.43356L92.670622 253.43356L92.670621 253.43355L92.670622 253.43355L92.67063 253.43358L92.670619 253.43355L92.670619 253.43355L92.670623 253.43356L92.670625 253.43356L92.670616 253.43354L92.67063 253.43358L92.67062 253.43355L92.670621 253.43355L92.670613 253.43353L92.670626 253.43357L92.670631 253.43358L92.670621 253.43355L92.670623 253.43356L92.670622 253.43356L92.670621 253.43355L92.670622 253.43355L92.67063 253.43358L92.670619 253.43355L92.670619 253.43355L92.670623 253.43356L92.674177 253.43341L92.677636 253.43294L92.681022 253.43225L92.684275 253.43123L92.687419 253.42998L92.690428 253.42848L92.693283 253.42673L92.696001 253.42482L92.698541 253.42267L92.700884 253.42029L92.703043 253.41777L92.704991 253.41506L92.70672 253.41219L92.708217 253.40918L92.709471 253.40604L92.710475 253.4028L92.711191 253.3994L92.711636 253.39593L92.711791 253.39239" stroke="#000000" stroke-width="0.0074083148" stroke-linecap="round" stroke-linejoin="round" fill="none"/>
    </g>
</g>
</svg>