<?xml version="1.0" encoding="UTF-8" standalone="no"?>
<!-- Created with Inkscape (http://www.inkscape.org/) -->

<svg
   version="1.1"
   id="svg1049"
   width="291.01886"
   height="76.696663"
   viewBox="0 0 291.01886 76.696663"
   sodipodi:docname="final logo.svg"
   inkscape:version="1.2.2 (732a01da63, 2022-12-09)"
   xmlns:inkscape="http://www.inkscape.org/namespaces/inkscape"
   xmlns:sodipodi="http://sodipodi.sourceforge.net/DTD/sodipodi-0.dtd"
   xmlns="http://www.w3.org/2000/svg"
   xmlns:svg="http://www.w3.org/2000/svg">
  <defs
     id="defs1053">
    <clipPath
       clipPathUnits="userSpaceOnUse"
       id="clipPath1065">
      <path
         d="M 0,792 H 612 V 0 H 0 Z"
         id="path1063" />
    </clipPath>
    <clipPath
       clipPathUnits="userSpaceOnUse"
       id="clipPath1073">
      <path
         d="M 180.945,744.66 H 399.563 V 699.888 H 180.945 Z"
         id="path1071" />
    </clipPath>
  </defs>
  <sodipodi:namedview
     id="namedview1051"
     pagecolor="#ffffff"
     bordercolor="#000000"
     borderopacity="0.25"
     inkscape:showpageshadow="2"
     inkscape:pageopacity="0.0"
     inkscape:pagecheckerboard="0"
     inkscape:deskcolor="#d1d1d1"
     showgrid="false"
     inkscape:zoom="2.075787"
     inkscape:cx="146.20961"
     inkscape:cy="28.182083"
     inkscape:window-width="1920"
     inkscape:window-height="991"
     inkscape:window-x="-9"
     inkscape:window-y="-9"
     inkscape:window-maximized="1"
     inkscape:current-layer="g1057">
    <inkscape:page
       x="0"
       y="0"
       id="page1055"
       width="291.01886"
       height="76.696663" />
  </sodipodi:namedview>
  <g
     id="g1057"
     inkscape:groupmode="layer"
     inkscape:label="Page 1"
     transform="matrix(1.3333333,0,0,-1.3333333,-203.78234,721.9413)">
    <g
       id="g1059"
       transform="translate(-28.150176,-216.08177)">
      <g
         id="g1061"
         clip-path="url(#clipPath1065)">
        <g
           id="g1067">
          <g
             id="g1069" />
          <g
             id="g1099">
            <g
               clip-path="url(#clipPath1073)"
               opacity="0.660004"
               id="g1097">
              <path
                 d="m 300.615,743.741 c 0.162,0.059 0.245,0.238 0.186,0.401 -0.059,0.162 -0.238,0.245 -0.401,0.186 l -118.937,-43.52 c -0.162,-0.06 -0.245,-0.24 -0.186,-0.402 0.059,-0.162 0.239,-0.245 0.401,-0.185"
                 style="fill:none;stroke:#939598;stroke-width:0.625;stroke-linecap:round;stroke-linejoin:miter;stroke-miterlimit:4;stroke-dasharray:0.05, 1.75;stroke-dashoffset:0;stroke-opacity:1"
                 id="path1075" />
              <path
                 d="m 308.47,743.746 c 0.159,0.066 0.234,0.248 0.169,0.408 -0.067,0.159 -0.249,0.236 -0.409,0.169 l -105.042,-43.52 c -0.16,-0.067 -0.236,-0.249 -0.169,-0.408 0.065,-0.161 0.249,-0.236 0.408,-0.169"
                 style="fill:none;stroke:#939598;stroke-width:0.625;stroke-linecap:round;stroke-linejoin:miter;stroke-miterlimit:4;stroke-dasharray:0.05, 1.75;stroke-dashoffset:0;stroke-opacity:1"
                 id="path1077" />
              <path
                 d="m 224.909,700.796 c -0.155,-0.074 -0.221,-0.261 -0.147,-0.417 0.074,-0.155 0.261,-0.222 0.417,-0.148 l 91.147,43.521 c 0.156,0.075 0.223,0.262 0.148,0.417 -0.075,0.156 -0.261,0.222 -0.416,0.147"
                 style="fill:none;stroke:#939598;stroke-width:0.625;stroke-linecap:round;stroke-linejoin:miter;stroke-miterlimit:4;stroke-dasharray:0.05, 1.75;stroke-dashoffset:0;stroke-opacity:1"
                 id="path1079" />
              <path
                 d="m 246.628,700.786 c -0.15,-0.085 -0.204,-0.275 -0.119,-0.426 0.085,-0.15 0.275,-0.203 0.426,-0.119 l 77.253,43.521 c 0.15,0.085 0.203,0.275 0.119,0.426 -0.085,0.15 -0.276,0.204 -0.426,0.119"
                 style="fill:none;stroke:#939598;stroke-width:0.625;stroke-linecap:round;stroke-linejoin:miter;stroke-miterlimit:4;stroke-dasharray:0.05, 1.75;stroke-dashoffset:0;stroke-opacity:1"
                 id="path1081" />
              <path
                 d="m 268.341,700.771 c -0.143,-0.097 -0.179,-0.292 -0.081,-0.434 0.097,-0.143 0.292,-0.179 0.434,-0.081 l 63.359,43.52 c 0.142,0.099 0.178,0.293 0.081,0.435 -0.098,0.143 -0.292,0.179 -0.435,0.081"
                 style="fill:none;stroke:#939598;stroke-width:0.625;stroke-linecap:round;stroke-linejoin:miter;stroke-miterlimit:4;stroke-dasharray:0.05, 1.75;stroke-dashoffset:0;stroke-opacity:1"
                 id="path1083" />
              <path
                 d="m 290.048,700.748 c -0.13,-0.113 -0.143,-0.311 -0.028,-0.44 0.114,-0.13 0.311,-0.143 0.441,-0.029 l 49.464,43.521 c 0.13,0.114 0.142,0.311 0.028,0.441 -0.114,0.129 -0.311,0.142 -0.441,0.028"
                 style="fill:none;stroke:#939598;stroke-width:0.625;stroke-linecap:round;stroke-linejoin:miter;stroke-miterlimit:4;stroke-dasharray:0.05, 1.75;stroke-dashoffset:0;stroke-opacity:1"
                 id="path1085" />
              <path
                 d="m 311.75,700.712 c -0.109,-0.134 -0.09,-0.331 0.044,-0.441 0.134,-0.108 0.33,-0.088 0.439,0.045 l 35.57,43.521 c 0.108,0.134 0.089,0.33 -0.045,0.439 -0.134,0.11 -0.33,0.09 -0.44,-0.044"
                 style="fill:none;stroke:#939598;stroke-width:0.625;stroke-linecap:round;stroke-linejoin:miter;stroke-miterlimit:4;stroke-dasharray:0.05, 1.75;stroke-dashoffset:0;stroke-opacity:1"
                 id="path1087" />
              <path
                 d="m 333.448,700.653 c -0.076,-0.154 -0.013,-0.341 0.141,-0.419 0.154,-0.077 0.342,-0.014 0.419,0.141 l 21.675,43.521 c 0.077,0.154 0.014,0.341 -0.141,0.418 -0.154,0.077 -0.342,0.014 -0.419,-0.14"
                 style="fill:none;stroke:#939598;stroke-width:0.625;stroke-linecap:round;stroke-linejoin:miter;stroke-miterlimit:4;stroke-dasharray:0.05, 1.75;stroke-dashoffset:0;stroke-opacity:1"
                 id="path1089" />
              <path
                 d="m 355.157,700.569 c -0.03,-0.17 0.082,-0.333 0.252,-0.363 0.17,-0.03 0.333,0.083 0.363,0.253 l 7.781,43.52 c 0.03,0.17 -0.083,0.333 -0.253,0.363 -0.17,0.03 -0.332,-0.082 -0.362,-0.252"
                 style="fill:none;stroke:#939598;stroke-width:0.625;stroke-linecap:round;stroke-linejoin:miter;stroke-miterlimit:4;stroke-dasharray:0.05, 1.75;stroke-dashoffset:0;stroke-opacity:1"
                 id="path1091" />
              <path
                 d="m 376.892,700.471 c 0.023,-0.171 0.181,-0.29 0.352,-0.267 0.171,0.025 0.29,0.183 0.267,0.354 l -6.115,43.52 c -0.024,0.171 -0.182,0.29 -0.353,0.266 -0.171,-0.024 -0.29,-0.182 -0.266,-0.353"
                 style="fill:none;stroke:#939598;stroke-width:0.625;stroke-linecap:round;stroke-linejoin:miter;stroke-miterlimit:4;stroke-dasharray:0.05, 1.75;stroke-dashoffset:0;stroke-opacity:1"
                 id="path1093" />
              <path
                 d="m 398.654,700.384 c 0.073,-0.157 0.258,-0.226 0.414,-0.155 0.158,0.073 0.226,0.258 0.155,0.416 l -20.009,43.52 c -0.072,0.156 -0.258,0.226 -0.415,0.153 -0.156,-0.072 -0.226,-0.257 -0.153,-0.414"
                 style="fill:none;stroke:#939598;stroke-width:0.625;stroke-linecap:round;stroke-linejoin:miter;stroke-miterlimit:4;stroke-dasharray:0.05, 1.75;stroke-dashoffset:0;stroke-opacity:1"
                 id="path1095" />
            </g>
          </g>
        </g>
        <path
           d="m 300.508,744.034 h 78.421"
           style="fill:none;stroke:#d1d3d4;stroke-width:0.625;stroke-linecap:round;stroke-linejoin:miter;stroke-miterlimit:4;stroke-dasharray:0.05, 1.75;stroke-dashoffset:0;stroke-opacity:1"
           id="path1101" />
        <path
           d="M 295.923,742.357 H 379.7"
           style="fill:none;stroke:#d1d3d4;stroke-width:0.625;stroke-linecap:round;stroke-linejoin:miter;stroke-miterlimit:4;stroke-dasharray:0.05, 1.75;stroke-dashoffset:0;stroke-opacity:1"
           id="path1103" />
        <path
           d="m 290.667,740.434 h 89.917"
           style="fill:none;stroke:#d1d3d4;stroke-width:0.625;stroke-linecap:round;stroke-linejoin:miter;stroke-miterlimit:4;stroke-dasharray:0.05, 1.75;stroke-dashoffset:0;stroke-opacity:1"
           id="path1105" />
        <path
           d="m 284.58,738.206 h 97.028"
           style="fill:none;stroke:#d1d3d4;stroke-width:0.625;stroke-linecap:round;stroke-linejoin:miter;stroke-miterlimit:4;stroke-dasharray:0.05, 1.75;stroke-dashoffset:0;stroke-opacity:1"
           id="path1107" />
        <path
           d="M 277.447,735.597 H 382.809"
           style="fill:none;stroke:#c9cbcc;stroke-width:0.625;stroke-linecap:round;stroke-linejoin:miter;stroke-miterlimit:4;stroke-dasharray:0.05, 1.75;stroke-dashoffset:0;stroke-opacity:1"
           id="path1109" />
        <path
           d="m 268.974,732.496 h 115.26"
           style="fill:none;stroke:#c0c2c4;stroke-width:0.625;stroke-linecap:round;stroke-linejoin:miter;stroke-miterlimit:4;stroke-dasharray:0.05, 1.75;stroke-dashoffset:0;stroke-opacity:1"
           id="path1111" />
        <path
           d="M 258.743,728.753 H 385.955"
           style="fill:none;stroke:#b7b9bc;stroke-width:0.625;stroke-linecap:round;stroke-linejoin:miter;stroke-miterlimit:4;stroke-dasharray:0.05, 1.75;stroke-dashoffset:0;stroke-opacity:1"
           id="path1113" />
        <path
           d="M 246.146,724.143 H 388.074"
           style="fill:none;stroke:#abadb0;stroke-width:0.625;stroke-linecap:round;stroke-linejoin:miter;stroke-miterlimit:4;stroke-dasharray:0.05, 1.75;stroke-dashoffset:0;stroke-opacity:1"
           id="path1115" />
        <path
           d="M 230.253,718.327 H 390.748"
           style="fill:none;stroke:#a3a5a8;stroke-width:0.625;stroke-linecap:round;stroke-linejoin:miter;stroke-miterlimit:4;stroke-dasharray:0.05, 1.75;stroke-dashoffset:0;stroke-opacity:1"
           id="path1117" />
        <path
           d="M 209.575,710.762 H 394.227"
           style="fill:none;stroke:#9b9da0;stroke-width:0.625;stroke-linecap:round;stroke-linejoin:miter;stroke-miterlimit:4;stroke-dasharray:0.05, 1.75;stroke-dashoffset:0;stroke-opacity:1"
           id="path1119" />
        <path
           d="M 398.938,700.514 H 181.569"
           style="fill:none;stroke:#939598;stroke-width:0.625;stroke-linecap:round;stroke-linejoin:miter;stroke-miterlimit:4;stroke-dasharray:0.05, 1.75;stroke-dashoffset:0;stroke-opacity:1"
           id="path1121" />
        <path
           d="m 262.689,718.281 v 38"
           style="fill:none;stroke:#231f20;stroke-width:0.5;stroke-linecap:round;stroke-linejoin:miter;stroke-miterlimit:4;stroke-dasharray:none;stroke-opacity:1"
           id="path1123" />
        <path
           d="m 263.96,754.832 -1.271,1.272 -1.272,-1.272 v 1.079 l 1.272,1.273 1.271,-1.273 z"
           style="fill:#231f20;fill-opacity:1;fill-rule:nonzero;stroke:none"
           id="path1125" />
        <path
           d="m 263.96,754.832 -1.271,1.272 -1.272,-1.272 v 1.079 l 1.272,1.273 1.271,-1.273 z"
           style="fill:none;stroke:#231f20;stroke-width:0.5;stroke-linecap:butt;stroke-linejoin:miter;stroke-miterlimit:4;stroke-dasharray:none;stroke-opacity:1"
           id="path1127" />
        <path
           d="M 262.689,718.279 236.528,705.768"
           style="fill:none;stroke:#231f20;stroke-width:0.5;stroke-linecap:round;stroke-linejoin:miter;stroke-miterlimit:4;stroke-dasharray:none;stroke-opacity:1"
           id="path1129" />
        <path
           d="m 237.286,707.539 -0.598,-1.695 1.696,-0.6 -0.973,-0.465 -1.697,0.599 0.599,1.696 z"
           style="fill:#231f20;fill-opacity:1;fill-rule:nonzero;stroke:none"
           id="path1131" />
        <path
           d="m 237.286,707.539 -0.598,-1.695 1.696,-0.6 -0.973,-0.465 -1.697,0.599 0.599,1.696 z"
           style="fill:none;stroke:#231f20;stroke-width:0.5;stroke-linecap:butt;stroke-linejoin:miter;stroke-miterlimit:4;stroke-dasharray:none;stroke-opacity:1"
           id="path1133" />
        <path
           d="M 262.689,718.281 H 384.022"
           style="fill:none;stroke:#231f20;stroke-width:0.5;stroke-linecap:round;stroke-linejoin:miter;stroke-miterlimit:4;stroke-dasharray:none;stroke-opacity:1"
           id="path1135" />
        <path
           d="m 382.573,717.01 1.273,1.271 -1.273,1.273 h 1.079 l 1.273,-1.273 -1.273,-1.271 z"
           style="fill:#231f20;fill-opacity:1;fill-rule:nonzero;stroke:none"
           id="path1137" />
        <path
           d="m 382.573,717.01 1.273,1.271 -1.273,1.273 h 1.079 l 1.273,-1.273 -1.273,-1.271 z"
           style="fill:none;stroke:#231f20;stroke-width:0.5;stroke-linecap:butt;stroke-linejoin:miter;stroke-miterlimit:4;stroke-dasharray:none;stroke-opacity:1"
           id="path1139" />
        <path
           d="m 263.846,718.263 c 0,-0.645 -0.523,-1.167 -1.167,-1.167 -0.645,0 -1.167,0.522 -1.167,1.167 0,0.644 0.522,1.167 1.167,1.167 0.644,0 1.167,-0.523 1.167,-1.167"
           style="fill:#231f20;fill-opacity:1;fill-rule:nonzero;stroke:none"
           id="path1141" />
        <text
           xml:space="preserve"
           transform="matrix(1,0,0,-1,265.1714,721.2559)"
           style="font-variant:normal;font-weight:bold;font-stretch:normal;font-size:22.1718px;font-family:Optima;-inkscape-font-specification:Optima-Bold;writing-mode:lr-tb;fill:#231f20;fill-opacity:1;fill-rule:nonzero;stroke:none"
           id="text1145"><tspan
             x="0 17.582237 25.320196 30.597084 40.796112 46.073002 57.513649 67.712677 77.911705 85.649666 90.926552 102.3672"
             y="0"
             sodipodi:role="line"
             id="tspan1143">Origineering</tspan></text>
      </g>
    </g>
  </g>
</svg>
