<?xml version="1.0" encoding="UTF-8"?>
<!DOCTYPE svg PUBLIC "-//W3C//DTD SVG 1.1//EN" "http://www.w3.org/Graphics/SVG/1.1/DTD/svg11.dtd">
<svg version="1.1" width="215.92mm" height="279.42mm" viewBox="0 0 21592 27942" preserveAspectRatio="xMidYMid" fill-rule="evenodd" clip-path="url(#presentation_clip_path)" stroke-width="28.222" stroke-linejoin="round" xmlns="http://www.w3.org/2000/svg" xmlns:ooo="http://xml.openoffice.org/svg/export" xmlns:xlink="http://www.w3.org/1999/xlink" xml:space="preserve">
 <defs class="ClipPathGroup">
  <clipPath id="presentation_clip_path" clipPathUnits="userSpaceOnUse">
   <rect x="0" y="0" width="21592" height="27942"/>
  </clipPath>
 </defs>
 <defs class="TextShapeIndex">
  
 </defs>
 <defs class="EmbeddedBulletChars">
  <g id="bullet-char-template57356" transform="scale(0.00048828125,-0.00048828125)">
   <path d="M 580,1141 L 1163,571 580,0 -4,571 580,1141 Z"/>
  </g>
  <g id="bullet-char-template57354" transform="scale(0.00048828125,-0.00048828125)">
   <path d="M 8,1128 L 1137,1128 1137,0 8,0 8,1128 Z"/>
  </g>
  <g id="bullet-char-template10146" transform="scale(0.00048828125,-0.00048828125)">
   <path d="M 174,0 L 602,739 174,1481 1456,739 174,0 Z M 1358,739 L 309,1346 659,739 1358,739 Z"/>
  </g>
  <g id="bullet-char-template10132" transform="scale(0.00048828125,-0.00048828125)">
   <path d="M 2015,739 L 1276,0 717,0 1260,543 174,543 174,936 1260,936 717,1481 1274,1481 2015,739 Z"/>
  </g>
  <g id="bullet-char-template10007" transform="scale(0.00048828125,-0.00048828125)">
   <path d="M 0,-2 C -7,14 -16,27 -25,37 L 356,567 C 262,823 215,952 215,954 215,979 228,992 255,992 264,992 276,990 289,987 310,991 331,999 354,1012 L 381,999 492,748 772,1049 836,1024 860,1049 C 881,1039 901,1025 922,1006 886,937 835,863 770,784 769,783 710,716 594,584 L 774,223 C 774,196 753,168 711,139 L 727,119 C 717,90 699,76 672,76 641,76 570,178 457,381 L 164,-76 C 142,-110 111,-127 72,-127 30,-127 9,-110 8,-76 1,-67 -2,-52 -2,-32 -2,-23 -1,-13 0,-2 Z"/>
  </g>
  <g id="bullet-char-template10004" transform="scale(0.00048828125,-0.00048828125)">
   <path d="M 285,-33 C 182,-33 111,30 74,156 52,228 41,333 41,471 41,549 55,616 82,672 116,743 169,778 240,778 293,778 328,747 346,684 L 369,508 C 377,444 397,411 428,410 L 1163,1116 C 1174,1127 1196,1133 1229,1133 1271,1133 1292,1118 1292,1087 L 1292,965 C 1292,929 1282,901 1262,881 L 442,47 C 390,-6 338,-33 285,-33 Z"/>
  </g>
  <g id="bullet-char-template9679" transform="scale(0.00048828125,-0.00048828125)">
   <path d="M 813,0 C 632,0 489,54 383,161 276,268 223,411 223,592 223,773 276,916 383,1023 489,1130 632,1184 813,1184 992,1184 1136,1130 1245,1023 1353,916 1407,772 1407,592 1407,412 1353,268 1245,161 1136,54 992,0 813,0 Z"/>
  </g>
  <g id="bullet-char-template8226" transform="scale(0.00048828125,-0.00048828125)">
   <path d="M 346,457 C 273,457 209,483 155,535 101,586 74,649 74,723 74,796 101,859 155,911 209,963 273,989 346,989 419,989 480,963 531,910 582,859 608,796 608,723 608,648 583,586 532,535 482,483 420,457 346,457 Z"/>
  </g>
  <g id="bullet-char-template8211" transform="scale(0.00048828125,-0.00048828125)">
   <path d="M -4,459 L 1135,459 1135,606 -4,606 -4,459 Z"/>
  </g>
 </defs>
 <defs class="TextEmbeddedBitmaps"/>
 <g>
  <g id="id2" class="Master_Slide">
   <g id="bg-id2" class="Background"/>
   <g id="bo-id2" class="BackgroundObjects"/>
  </g>
 </g>
 <g class="SlideGroup">
  <g>
   <g id="id1" class="Slide" clip-path="url(#presentation_clip_path)">
    <g class="Page">
     <g class="Group">
      <g class="com.sun.star.drawing.RectangleShape">
       <g id="id3">
        <path fill="rgb(255,255,255)" stroke="none" d="M 10797,27942 L 1,27942 1,1 21592,1 21592,27942 10797,27942 Z"/>
       </g>
      </g>
      <g class="com.sun.star.drawing.PolyLineShape">
       <g id="id4">
        <path fill="none" stroke="rgb(0,128,0)" stroke-width="11" d="M 1902,26667 L 1902,1267"/>
        <path fill="none" stroke="rgb(0,128,0)" stroke-width="11" d="M 4440,26665 L 4440,1265"/>
        <path fill="none" stroke="rgb(0,128,0)" stroke-width="11" d="M 6980,26665 L 6980,1265"/>
        <path fill="none" stroke="rgb(0,128,0)" stroke-width="11" d="M 9520,26665 L 9520,1265"/>
        <path fill="none" stroke="rgb(0,128,0)" stroke-width="11" d="M 12060,26665 L 12060,1265"/>
        <path fill="none" stroke="rgb(0,128,0)" stroke-width="11" d="M 14600,26665 L 14600,1265"/>
        <path fill="none" stroke="rgb(0,128,0)" stroke-width="11" d="M 17140,26665 L 17140,1265"/>
        <path fill="none" stroke="rgb(0,128,0)" stroke-width="11" d="M 19680,26665 L 19680,1265"/>
        <path fill="none" stroke="rgb(0,128,0)" stroke-width="11" d="M 1900,1265 L 19680,1265"/>
        <path fill="none" stroke="rgb(0,128,0)" stroke-width="11" d="M 1900,3805 L 19680,3805"/>
        <path fill="none" stroke="rgb(0,128,0)" stroke-width="11" d="M 1900,6345 L 19680,6345"/>
        <path fill="none" stroke="rgb(0,128,0)" stroke-width="11" d="M 1900,8885 L 19680,8885"/>
        <path fill="none" stroke="rgb(0,128,0)" stroke-width="11" d="M 1900,11425 L 19680,11425"/>
        <path fill="none" stroke="rgb(0,128,0)" stroke-width="11" d="M 1900,13965 L 19680,13965"/>
        <path fill="none" stroke="rgb(0,128,0)" stroke-width="11" d="M 1900,16505 L 19680,16505"/>
        <path fill="none" stroke="rgb(0,128,0)" stroke-width="11" d="M 1900,19045 L 19680,19045"/>
        <path fill="none" stroke="rgb(0,128,0)" stroke-width="11" d="M 1900,21585 L 19680,21585"/>
        <path fill="none" stroke="rgb(0,128,0)" stroke-width="11" d="M 1900,24125 L 19680,24125"/>
        <path fill="none" stroke="rgb(0,128,0)" stroke-width="11" d="M 1900,26665 L 19680,26665"/>
       </g>
      </g>
      <g class="com.sun.star.drawing.PolyLineShape">
       <g id="id5">
        <path fill="none" stroke="rgb(0,128,0)" stroke-width="7" d="M 1900,26665 L 1900,1265"/>
        <path fill="none" stroke="rgb(0,128,0)" stroke-width="7" d="M 3170,26665 L 3170,1265"/>
        <path fill="none" stroke="rgb(0,128,0)" stroke-width="7" d="M 4440,26665 L 4440,1265"/>
        <path fill="none" stroke="rgb(0,128,0)" stroke-width="7" d="M 5710,26665 L 5710,1265"/>
        <path fill="none" stroke="rgb(0,128,0)" stroke-width="7" d="M 6980,26665 L 6980,1265"/>
        <path fill="none" stroke="rgb(0,128,0)" stroke-width="7" d="M 8250,26665 L 8250,1265"/>
        <path fill="none" stroke="rgb(0,128,0)" stroke-width="7" d="M 9520,26665 L 9520,1265"/>
        <path fill="none" stroke="rgb(0,128,0)" stroke-width="7" d="M 10790,26665 L 10790,1265"/>
        <path fill="none" stroke="rgb(0,128,0)" stroke-width="7" d="M 12060,26665 L 12060,1265"/>
        <path fill="none" stroke="rgb(0,128,0)" stroke-width="7" d="M 13330,26665 L 13330,1265"/>
        <path fill="none" stroke="rgb(0,128,0)" stroke-width="7" d="M 14600,26665 L 14600,1265"/>
        <path fill="none" stroke="rgb(0,128,0)" stroke-width="7" d="M 15870,26665 L 15870,1265"/>
        <path fill="none" stroke="rgb(0,128,0)" stroke-width="7" d="M 17140,26665 L 17140,1265"/>
        <path fill="none" stroke="rgb(0,128,0)" stroke-width="7" d="M 18410,26665 L 18410,1265"/>
        <path fill="none" stroke="rgb(0,128,0)" stroke-width="7" d="M 19680,26665 L 19680,1265"/>
        <path fill="none" stroke="rgb(0,128,0)" stroke-width="7" d="M 1900,1265 L 19680,1265"/>
        <path fill="none" stroke="rgb(0,128,0)" stroke-width="7" d="M 1900,2535 L 19680,2535"/>
        <path fill="none" stroke="rgb(0,128,0)" stroke-width="7" d="M 1900,3805 L 19680,3805"/>
        <path fill="none" stroke="rgb(0,128,0)" stroke-width="7" d="M 1900,5075 L 19680,5075"/>
        <path fill="none" stroke="rgb(0,128,0)" stroke-width="7" d="M 1900,6345 L 19680,6345"/>
        <path fill="none" stroke="rgb(0,128,0)" stroke-width="7" d="M 1900,7615 L 19680,7615"/>
        <path fill="none" stroke="rgb(0,128,0)" stroke-width="7" d="M 1900,8885 L 19680,8885"/>
        <path fill="none" stroke="rgb(0,128,0)" stroke-width="7" d="M 1900,10155 L 19680,10155"/>
        <path fill="none" stroke="rgb(0,128,0)" stroke-width="7" d="M 1900,11425 L 19680,11425"/>
        <path fill="none" stroke="rgb(0,128,0)" stroke-width="7" d="M 1900,12695 L 19680,12695"/>
        <path fill="none" stroke="rgb(0,128,0)" stroke-width="7" d="M 1900,13965 L 19680,13965"/>
        <path fill="none" stroke="rgb(0,128,0)" stroke-width="7" d="M 1900,15235 L 19680,15235"/>
        <path fill="none" stroke="rgb(0,128,0)" stroke-width="7" d="M 1900,16505 L 19680,16505"/>
        <path fill="none" stroke="rgb(0,128,0)" stroke-width="7" d="M 1900,17775 L 19680,17775"/>
        <path fill="none" stroke="rgb(0,128,0)" stroke-width="7" d="M 1900,19045 L 19680,19045"/>
        <path fill="none" stroke="rgb(0,128,0)" stroke-width="7" d="M 1900,20315 L 19680,20315"/>
        <path fill="none" stroke="rgb(0,128,0)" stroke-width="7" d="M 1900,21585 L 19680,21585"/>
        <path fill="none" stroke="rgb(0,128,0)" stroke-width="7" d="M 1900,22855 L 19680,22855"/>
        <path fill="none" stroke="rgb(0,128,0)" stroke-width="7" d="M 1900,24125 L 19680,24125"/>
        <path fill="none" stroke="rgb(0,128,0)" stroke-width="7" d="M 1900,25395 L 19680,25395"/>
        <path fill="none" stroke="rgb(0,128,0)" stroke-width="7" d="M 1900,26665 L 19680,26665"/>
       </g>
      </g>
      <g class="com.sun.star.drawing.PolyLineShape">
       <g id="id6">
        <path fill="none" stroke="rgb(0,128,0)" stroke-width="4" d="M 1902,26667 L 1902,1267"/>
        <path fill="none" stroke="rgb(0,128,0)" stroke-width="4" d="M 2112,26665 L 2112,1265"/>
        <path fill="none" stroke="rgb(0,128,0)" stroke-width="4" d="M 2323,26665 L 2323,1265"/>
        <path fill="none" stroke="rgb(0,128,0)" stroke-width="4" d="M 2535,26665 L 2535,1265"/>
        <path fill="none" stroke="rgb(0,128,0)" stroke-width="4" d="M 2747,26665 L 2747,1265"/>
        <path fill="none" stroke="rgb(0,128,0)" stroke-width="4" d="M 2958,26665 L 2958,1265"/>
        <path fill="none" stroke="rgb(0,128,0)" stroke-width="4" d="M 3170,26665 L 3170,1265"/>
        <path fill="none" stroke="rgb(0,128,0)" stroke-width="4" d="M 3382,26665 L 3382,1265"/>
        <path fill="none" stroke="rgb(0,128,0)" stroke-width="4" d="M 3593,26665 L 3593,1265"/>
        <path fill="none" stroke="rgb(0,128,0)" stroke-width="4" d="M 3805,26665 L 3805,1265"/>
        <path fill="none" stroke="rgb(0,128,0)" stroke-width="4" d="M 4017,26665 L 4017,1265"/>
        <path fill="none" stroke="rgb(0,128,0)" stroke-width="4" d="M 4228,26665 L 4228,1265"/>
        <path fill="none" stroke="rgb(0,128,0)" stroke-width="4" d="M 4440,26665 L 4440,1265"/>
        <path fill="none" stroke="rgb(0,128,0)" stroke-width="4" d="M 4652,26665 L 4652,1265"/>
        <path fill="none" stroke="rgb(0,128,0)" stroke-width="4" d="M 4863,26665 L 4863,1265"/>
        <path fill="none" stroke="rgb(0,128,0)" stroke-width="4" d="M 5075,26665 L 5075,1265"/>
        <path fill="none" stroke="rgb(0,128,0)" stroke-width="4" d="M 5287,26665 L 5287,1265"/>
        <path fill="none" stroke="rgb(0,128,0)" stroke-width="4" d="M 5498,26665 L 5498,1265"/>
        <path fill="none" stroke="rgb(0,128,0)" stroke-width="4" d="M 5710,26665 L 5710,1265"/>
        <path fill="none" stroke="rgb(0,128,0)" stroke-width="4" d="M 5922,26665 L 5922,1265"/>
        <path fill="none" stroke="rgb(0,128,0)" stroke-width="4" d="M 6133,26665 L 6133,1265"/>
        <path fill="none" stroke="rgb(0,128,0)" stroke-width="4" d="M 6345,26665 L 6345,1265"/>
        <path fill="none" stroke="rgb(0,128,0)" stroke-width="4" d="M 6558,26665 L 6558,1265"/>
        <path fill="none" stroke="rgb(0,128,0)" stroke-width="4" d="M 6768,26665 L 6768,1265"/>
        <path fill="none" stroke="rgb(0,128,0)" stroke-width="4" d="M 6980,26665 L 6980,1265"/>
        <path fill="none" stroke="rgb(0,128,0)" stroke-width="4" d="M 7192,26665 L 7192,1265"/>
        <path fill="none" stroke="rgb(0,128,0)" stroke-width="4" d="M 7403,26665 L 7403,1265"/>
        <path fill="none" stroke="rgb(0,128,0)" stroke-width="4" d="M 7615,26665 L 7615,1265"/>
        <path fill="none" stroke="rgb(0,128,0)" stroke-width="4" d="M 7827,26665 L 7827,1265"/>
        <path fill="none" stroke="rgb(0,128,0)" stroke-width="4" d="M 8038,26665 L 8038,1265"/>
        <path fill="none" stroke="rgb(0,128,0)" stroke-width="4" d="M 8250,26665 L 8250,1265"/>
        <path fill="none" stroke="rgb(0,128,0)" stroke-width="4" d="M 8462,26665 L 8462,1265"/>
        <path fill="none" stroke="rgb(0,128,0)" stroke-width="4" d="M 8673,26665 L 8673,1265"/>
        <path fill="none" stroke="rgb(0,128,0)" stroke-width="4" d="M 8885,26665 L 8885,1265"/>
        <path fill="none" stroke="rgb(0,128,0)" stroke-width="4" d="M 9097,26665 L 9097,1265"/>
        <path fill="none" stroke="rgb(0,128,0)" stroke-width="4" d="M 9308,26665 L 9308,1265"/>
        <path fill="none" stroke="rgb(0,128,0)" stroke-width="4" d="M 9520,26665 L 9520,1265"/>
        <path fill="none" stroke="rgb(0,128,0)" stroke-width="4" d="M 9732,26665 L 9732,1265"/>
        <path fill="none" stroke="rgb(0,128,0)" stroke-width="4" d="M 9943,26665 L 9943,1265"/>
        <path fill="none" stroke="rgb(0,128,0)" stroke-width="4" d="M 10155,26665 L 10155,1265"/>
        <path fill="none" stroke="rgb(0,128,0)" stroke-width="4" d="M 10367,26665 L 10367,1265"/>
        <path fill="none" stroke="rgb(0,128,0)" stroke-width="4" d="M 10578,26665 L 10578,1265"/>
        <path fill="none" stroke="rgb(0,128,0)" stroke-width="4" d="M 10790,26665 L 10790,1265"/>
        <path fill="none" stroke="rgb(0,128,0)" stroke-width="4" d="M 11003,26665 L 11003,1265"/>
        <path fill="none" stroke="rgb(0,128,0)" stroke-width="4" d="M 11213,26665 L 11213,1265"/>
        <path fill="none" stroke="rgb(0,128,0)" stroke-width="4" d="M 11425,26665 L 11425,1265"/>
        <path fill="none" stroke="rgb(0,128,0)" stroke-width="4" d="M 11637,26665 L 11637,1265"/>
        <path fill="none" stroke="rgb(0,128,0)" stroke-width="4" d="M 11848,26665 L 11848,1265"/>
        <path fill="none" stroke="rgb(0,128,0)" stroke-width="4" d="M 12060,26665 L 12060,1265"/>
        <path fill="none" stroke="rgb(0,128,0)" stroke-width="4" d="M 12273,26665 L 12273,1265"/>
        <path fill="none" stroke="rgb(0,128,0)" stroke-width="4" d="M 12483,26665 L 12483,1265"/>
        <path fill="none" stroke="rgb(0,128,0)" stroke-width="4" d="M 12695,26665 L 12695,1265"/>
        <path fill="none" stroke="rgb(0,128,0)" stroke-width="4" d="M 12907,26665 L 12907,1265"/>
        <path fill="none" stroke="rgb(0,128,0)" stroke-width="4" d="M 13118,26665 L 13118,1265"/>
        <path fill="none" stroke="rgb(0,128,0)" stroke-width="4" d="M 13330,26665 L 13330,1265"/>
        <path fill="none" stroke="rgb(0,128,0)" stroke-width="4" d="M 13542,26665 L 13542,1265"/>
        <path fill="none" stroke="rgb(0,128,0)" stroke-width="4" d="M 13753,26665 L 13753,1265"/>
        <path fill="none" stroke="rgb(0,128,0)" stroke-width="4" d="M 13965,26665 L 13965,1265"/>
        <path fill="none" stroke="rgb(0,128,0)" stroke-width="4" d="M 14177,26665 L 14177,1265"/>
        <path fill="none" stroke="rgb(0,128,0)" stroke-width="4" d="M 14388,26665 L 14388,1265"/>
        <path fill="none" stroke="rgb(0,128,0)" stroke-width="4" d="M 14600,26665 L 14600,1265"/>
        <path fill="none" stroke="rgb(0,128,0)" stroke-width="4" d="M 14812,26665 L 14812,1265"/>
        <path fill="none" stroke="rgb(0,128,0)" stroke-width="4" d="M 15023,26665 L 15023,1265"/>
        <path fill="none" stroke="rgb(0,128,0)" stroke-width="4" d="M 15235,26665 L 15235,1265"/>
        <path fill="none" stroke="rgb(0,128,0)" stroke-width="4" d="M 15447,26665 L 15447,1265"/>
        <path fill="none" stroke="rgb(0,128,0)" stroke-width="4" d="M 15658,26665 L 15658,1265"/>
        <path fill="none" stroke="rgb(0,128,0)" stroke-width="4" d="M 15870,26665 L 15870,1265"/>
        <path fill="none" stroke="rgb(0,128,0)" stroke-width="4" d="M 16082,26665 L 16082,1265"/>
        <path fill="none" stroke="rgb(0,128,0)" stroke-width="4" d="M 16293,26665 L 16293,1265"/>
        <path fill="none" stroke="rgb(0,128,0)" stroke-width="4" d="M 16505,26665 L 16505,1265"/>
        <path fill="none" stroke="rgb(0,128,0)" stroke-width="4" d="M 16717,26665 L 16717,1265"/>
        <path fill="none" stroke="rgb(0,128,0)" stroke-width="4" d="M 16928,26665 L 16928,1265"/>
        <path fill="none" stroke="rgb(0,128,0)" stroke-width="4" d="M 17140,26665 L 17140,1265"/>
        <path fill="none" stroke="rgb(0,128,0)" stroke-width="4" d="M 17352,26665 L 17352,1265"/>
        <path fill="none" stroke="rgb(0,128,0)" stroke-width="4" d="M 17563,26665 L 17563,1265"/>
        <path fill="none" stroke="rgb(0,128,0)" stroke-width="4" d="M 17775,26665 L 17775,1265"/>
        <path fill="none" stroke="rgb(0,128,0)" stroke-width="4" d="M 17987,26665 L 17987,1265"/>
        <path fill="none" stroke="rgb(0,128,0)" stroke-width="4" d="M 18198,26665 L 18198,1265"/>
        <path fill="none" stroke="rgb(0,128,0)" stroke-width="4" d="M 18410,26665 L 18410,1265"/>
        <path fill="none" stroke="rgb(0,128,0)" stroke-width="4" d="M 18622,26665 L 18622,1265"/>
        <path fill="none" stroke="rgb(0,128,0)" stroke-width="4" d="M 18833,26665 L 18833,1265"/>
        <path fill="none" stroke="rgb(0,128,0)" stroke-width="4" d="M 19045,26665 L 19045,1265"/>
        <path fill="none" stroke="rgb(0,128,0)" stroke-width="4" d="M 19257,26665 L 19257,1265"/>
        <path fill="none" stroke="rgb(0,128,0)" stroke-width="4" d="M 19468,26665 L 19468,1265"/>
        <path fill="none" stroke="rgb(0,128,0)" stroke-width="4" d="M 19680,26665 L 19680,1265"/>
        <path fill="none" stroke="rgb(0,128,0)" stroke-width="4" d="M 1900,1265 L 19680,1265"/>
        <path fill="none" stroke="rgb(0,128,0)" stroke-width="4" d="M 1900,1477 L 19680,1477"/>
        <path fill="none" stroke="rgb(0,128,0)" stroke-width="4" d="M 1900,1689 L 19680,1689"/>
        <path fill="none" stroke="rgb(0,128,0)" stroke-width="4" d="M 1900,1900 L 19680,1900"/>
        <path fill="none" stroke="rgb(0,128,0)" stroke-width="4" d="M 1900,2112 L 19680,2112"/>
        <path fill="none" stroke="rgb(0,128,0)" stroke-width="4" d="M 1900,2324 L 19680,2324"/>
        <path fill="none" stroke="rgb(0,128,0)" stroke-width="4" d="M 1900,2535 L 19680,2535"/>
        <path fill="none" stroke="rgb(0,128,0)" stroke-width="4" d="M 1900,2747 L 19680,2747"/>
        <path fill="none" stroke="rgb(0,128,0)" stroke-width="4" d="M 1900,2959 L 19680,2959"/>
        <path fill="none" stroke="rgb(0,128,0)" stroke-width="4" d="M 1900,3170 L 19680,3170"/>
        <path fill="none" stroke="rgb(0,128,0)" stroke-width="4" d="M 1900,3382 L 19680,3382"/>
        <path fill="none" stroke="rgb(0,128,0)" stroke-width="4" d="M 1900,3594 L 19680,3594"/>
        <path fill="none" stroke="rgb(0,128,0)" stroke-width="4" d="M 1900,3805 L 19680,3805"/>
        <path fill="none" stroke="rgb(0,128,0)" stroke-width="4" d="M 1900,4019 L 19680,4019"/>
        <path fill="none" stroke="rgb(0,128,0)" stroke-width="4" d="M 1900,4229 L 19680,4229"/>
        <path fill="none" stroke="rgb(0,128,0)" stroke-width="4" d="M 1900,4440 L 19680,4440"/>
        <path fill="none" stroke="rgb(0,128,0)" stroke-width="4" d="M 1900,4652 L 19680,4652"/>
        <path fill="none" stroke="rgb(0,128,0)" stroke-width="4" d="M 1900,4864 L 19680,4864"/>
        <path fill="none" stroke="rgb(0,128,0)" stroke-width="4" d="M 1900,5075 L 19680,5075"/>
        <path fill="none" stroke="rgb(0,128,0)" stroke-width="4" d="M 1900,5287 L 19680,5287"/>
        <path fill="none" stroke="rgb(0,128,0)" stroke-width="4" d="M 1900,5499 L 19680,5499"/>
        <path fill="none" stroke="rgb(0,128,0)" stroke-width="4" d="M 1900,5710 L 19680,5710"/>
        <path fill="none" stroke="rgb(0,128,0)" stroke-width="4" d="M 1900,5922 L 19680,5922"/>
        <path fill="none" stroke="rgb(0,128,0)" stroke-width="4" d="M 1900,6134 L 19680,6134"/>
        <path fill="none" stroke="rgb(0,128,0)" stroke-width="4" d="M 1900,6345 L 19680,6345"/>
        <path fill="none" stroke="rgb(0,128,0)" stroke-width="4" d="M 1900,6557 L 19680,6557"/>
        <path fill="none" stroke="rgb(0,128,0)" stroke-width="4" d="M 1900,6769 L 19680,6769"/>
        <path fill="none" stroke="rgb(0,128,0)" stroke-width="4" d="M 1900,6980 L 19680,6980"/>
        <path fill="none" stroke="rgb(0,128,0)" stroke-width="4" d="M 1900,7192 L 19680,7192"/>
        <path fill="none" stroke="rgb(0,128,0)" stroke-width="4" d="M 1900,7404 L 19680,7404"/>
        <path fill="none" stroke="rgb(0,128,0)" stroke-width="4" d="M 1900,7615 L 19680,7615"/>
        <path fill="none" stroke="rgb(0,128,0)" stroke-width="4" d="M 1900,7827 L 19680,7827"/>
        <path fill="none" stroke="rgb(0,128,0)" stroke-width="4" d="M 1900,8039 L 19680,8039"/>
        <path fill="none" stroke="rgb(0,128,0)" stroke-width="4" d="M 1900,8250 L 19680,8250"/>
        <path fill="none" stroke="rgb(0,128,0)" stroke-width="4" d="M 1900,8462 L 19680,8462"/>
        <path fill="none" stroke="rgb(0,128,0)" stroke-width="4" d="M 1900,8674 L 19680,8674"/>
        <path fill="none" stroke="rgb(0,128,0)" stroke-width="4" d="M 1900,8885 L 19680,8885"/>
        <path fill="none" stroke="rgb(0,128,0)" stroke-width="4" d="M 1900,9097 L 19680,9097"/>
        <path fill="none" stroke="rgb(0,128,0)" stroke-width="4" d="M 1900,9309 L 19680,9309"/>
        <path fill="none" stroke="rgb(0,128,0)" stroke-width="4" d="M 1900,9520 L 19680,9520"/>
        <path fill="none" stroke="rgb(0,128,0)" stroke-width="4" d="M 1900,9732 L 19680,9732"/>
        <path fill="none" stroke="rgb(0,128,0)" stroke-width="4" d="M 1900,9944 L 19680,9944"/>
        <path fill="none" stroke="rgb(0,128,0)" stroke-width="4" d="M 1900,10155 L 19680,10155"/>
        <path fill="none" stroke="rgb(0,128,0)" stroke-width="4" d="M 1900,10367 L 19680,10367"/>
        <path fill="none" stroke="rgb(0,128,0)" stroke-width="4" d="M 1900,10579 L 19680,10579"/>
        <path fill="none" stroke="rgb(0,128,0)" stroke-width="4" d="M 1900,10790 L 19680,10790"/>
        <path fill="none" stroke="rgb(0,128,0)" stroke-width="4" d="M 1900,11002 L 19680,11002"/>
        <path fill="none" stroke="rgb(0,128,0)" stroke-width="4" d="M 1900,11214 L 19680,11214"/>
        <path fill="none" stroke="rgb(0,128,0)" stroke-width="4" d="M 1900,11425 L 19680,11425"/>
        <path fill="none" stroke="rgb(0,128,0)" stroke-width="4" d="M 1900,11637 L 19680,11637"/>
        <path fill="none" stroke="rgb(0,128,0)" stroke-width="4" d="M 1900,11849 L 19680,11849"/>
        <path fill="none" stroke="rgb(0,128,0)" stroke-width="4" d="M 1900,12060 L 19680,12060"/>
        <path fill="none" stroke="rgb(0,128,0)" stroke-width="4" d="M 1900,12272 L 19680,12272"/>
        <path fill="none" stroke="rgb(0,128,0)" stroke-width="4" d="M 1900,12484 L 19680,12484"/>
        <path fill="none" stroke="rgb(0,128,0)" stroke-width="4" d="M 1900,12695 L 19680,12695"/>
        <path fill="none" stroke="rgb(0,128,0)" stroke-width="4" d="M 1900,12907 L 19680,12907"/>
        <path fill="none" stroke="rgb(0,128,0)" stroke-width="4" d="M 1900,13119 L 19680,13119"/>
        <path fill="none" stroke="rgb(0,128,0)" stroke-width="4" d="M 1900,13330 L 19680,13330"/>
        <path fill="none" stroke="rgb(0,128,0)" stroke-width="4" d="M 1900,13542 L 19680,13542"/>
        <path fill="none" stroke="rgb(0,128,0)" stroke-width="4" d="M 1900,13754 L 19680,13754"/>
        <path fill="none" stroke="rgb(0,128,0)" stroke-width="4" d="M 1900,13965 L 19680,13965"/>
        <path fill="none" stroke="rgb(0,128,0)" stroke-width="4" d="M 1900,14177 L 19680,14177"/>
        <path fill="none" stroke="rgb(0,128,0)" stroke-width="4" d="M 1900,14389 L 19680,14389"/>
        <path fill="none" stroke="rgb(0,128,0)" stroke-width="4" d="M 1900,14600 L 19680,14600"/>
        <path fill="none" stroke="rgb(0,128,0)" stroke-width="4" d="M 1900,14812 L 19680,14812"/>
        <path fill="none" stroke="rgb(0,128,0)" stroke-width="4" d="M 1900,15024 L 19680,15024"/>
        <path fill="none" stroke="rgb(0,128,0)" stroke-width="4" d="M 1900,15235 L 19680,15235"/>
        <path fill="none" stroke="rgb(0,128,0)" stroke-width="4" d="M 1900,15447 L 19680,15447"/>
        <path fill="none" stroke="rgb(0,128,0)" stroke-width="4" d="M 1900,15659 L 19680,15659"/>
        <path fill="none" stroke="rgb(0,128,0)" stroke-width="4" d="M 1900,15870 L 19680,15870"/>
        <path fill="none" stroke="rgb(0,128,0)" stroke-width="4" d="M 1900,16082 L 19680,16082"/>
        <path fill="none" stroke="rgb(0,128,0)" stroke-width="4" d="M 1900,16294 L 19680,16294"/>
        <path fill="none" stroke="rgb(0,128,0)" stroke-width="4" d="M 1900,16505 L 19680,16505"/>
        <path fill="none" stroke="rgb(0,128,0)" stroke-width="4" d="M 1900,16717 L 19680,16717"/>
        <path fill="none" stroke="rgb(0,128,0)" stroke-width="4" d="M 1900,16929 L 19680,16929"/>
        <path fill="none" stroke="rgb(0,128,0)" stroke-width="4" d="M 1900,17140 L 19680,17140"/>
        <path fill="none" stroke="rgb(0,128,0)" stroke-width="4" d="M 1900,17354 L 19680,17354"/>
        <path fill="none" stroke="rgb(0,128,0)" stroke-width="4" d="M 1900,17564 L 19680,17564"/>
        <path fill="none" stroke="rgb(0,128,0)" stroke-width="4" d="M 1900,17775 L 19680,17775"/>
        <path fill="none" stroke="rgb(0,128,0)" stroke-width="4" d="M 1900,17987 L 19680,17987"/>
        <path fill="none" stroke="rgb(0,128,0)" stroke-width="4" d="M 1900,18199 L 19680,18199"/>
        <path fill="none" stroke="rgb(0,128,0)" stroke-width="4" d="M 1900,18410 L 19680,18410"/>
        <path fill="none" stroke="rgb(0,128,0)" stroke-width="4" d="M 1900,18622 L 19680,18622"/>
        <path fill="none" stroke="rgb(0,128,0)" stroke-width="4" d="M 1900,18834 L 19680,18834"/>
        <path fill="none" stroke="rgb(0,128,0)" stroke-width="4" d="M 1900,19045 L 19680,19045"/>
        <path fill="none" stroke="rgb(0,128,0)" stroke-width="4" d="M 1900,19257 L 19680,19257"/>
        <path fill="none" stroke="rgb(0,128,0)" stroke-width="4" d="M 1900,19469 L 19680,19469"/>
        <path fill="none" stroke="rgb(0,128,0)" stroke-width="4" d="M 1900,19680 L 19680,19680"/>
        <path fill="none" stroke="rgb(0,128,0)" stroke-width="4" d="M 1900,19894 L 19680,19894"/>
        <path fill="none" stroke="rgb(0,128,0)" stroke-width="4" d="M 1900,20104 L 19680,20104"/>
        <path fill="none" stroke="rgb(0,128,0)" stroke-width="4" d="M 1900,20315 L 19680,20315"/>
        <path fill="none" stroke="rgb(0,128,0)" stroke-width="4" d="M 1900,20527 L 19680,20527"/>
        <path fill="none" stroke="rgb(0,128,0)" stroke-width="4" d="M 1900,20739 L 19680,20739"/>
        <path fill="none" stroke="rgb(0,128,0)" stroke-width="4" d="M 1900,20950 L 19680,20950"/>
        <path fill="none" stroke="rgb(0,128,0)" stroke-width="4" d="M 1900,21162 L 19680,21162"/>
        <path fill="none" stroke="rgb(0,128,0)" stroke-width="4" d="M 1900,21374 L 19680,21374"/>
        <path fill="none" stroke="rgb(0,128,0)" stroke-width="4" d="M 1900,21585 L 19680,21585"/>
        <path fill="none" stroke="rgb(0,128,0)" stroke-width="4" d="M 1900,21797 L 19680,21797"/>
        <path fill="none" stroke="rgb(0,128,0)" stroke-width="4" d="M 1900,22009 L 19680,22009"/>
        <path fill="none" stroke="rgb(0,128,0)" stroke-width="4" d="M 1900,22220 L 19680,22220"/>
        <path fill="none" stroke="rgb(0,128,0)" stroke-width="4" d="M 1900,22432 L 19680,22432"/>
        <path fill="none" stroke="rgb(0,128,0)" stroke-width="4" d="M 1900,22644 L 19680,22644"/>
        <path fill="none" stroke="rgb(0,128,0)" stroke-width="4" d="M 1900,22855 L 19680,22855"/>
        <path fill="none" stroke="rgb(0,128,0)" stroke-width="4" d="M 1900,23067 L 19680,23067"/>
        <path fill="none" stroke="rgb(0,128,0)" stroke-width="4" d="M 1900,23279 L 19680,23279"/>
        <path fill="none" stroke="rgb(0,128,0)" stroke-width="4" d="M 1900,23490 L 19680,23490"/>
        <path fill="none" stroke="rgb(0,128,0)" stroke-width="4" d="M 1900,23702 L 19680,23702"/>
        <path fill="none" stroke="rgb(0,128,0)" stroke-width="4" d="M 1900,23914 L 19680,23914"/>
        <path fill="none" stroke="rgb(0,128,0)" stroke-width="4" d="M 1900,24125 L 19680,24125"/>
        <path fill="none" stroke="rgb(0,128,0)" stroke-width="4" d="M 1900,24337 L 19680,24337"/>
        <path fill="none" stroke="rgb(0,128,0)" stroke-width="4" d="M 1900,24549 L 19680,24549"/>
        <path fill="none" stroke="rgb(0,128,0)" stroke-width="4" d="M 1900,24760 L 19680,24760"/>
        <path fill="none" stroke="rgb(0,128,0)" stroke-width="4" d="M 1900,24972 L 19680,24972"/>
        <path fill="none" stroke="rgb(0,128,0)" stroke-width="4" d="M 1900,25184 L 19680,25184"/>
        <path fill="none" stroke="rgb(0,128,0)" stroke-width="4" d="M 1900,25395 L 19680,25395"/>
        <path fill="none" stroke="rgb(0,128,0)" stroke-width="4" d="M 1900,25607 L 19680,25607"/>
        <path fill="none" stroke="rgb(0,128,0)" stroke-width="4" d="M 1900,25819 L 19680,25819"/>
        <path fill="none" stroke="rgb(0,128,0)" stroke-width="4" d="M 1900,26030 L 19680,26030"/>
        <path fill="none" stroke="rgb(0,128,0)" stroke-width="4" d="M 1900,26242 L 19680,26242"/>
        <path fill="none" stroke="rgb(0,128,0)" stroke-width="4" d="M 1900,26454 L 19680,26454"/>
        <path fill="none" stroke="rgb(0,128,0)" stroke-width="4" d="M 1900,26665 L 19680,26665"/>
       </g>
      </g>
     </g>
    </g>
   </g>
  </g>
 </g>
</svg>